nColumns=19
nRows=64
DataType=double
version=3
OpenSimVersion=4.1
endheader
time	ground_force_1_vx	ground_force_1_vy	ground_force_1_vz	ground_force_1_px	ground_force_1_py	ground_force_1_pz	ground_force_1_mx	ground_force_1_my	ground_force_1_mz	ground_force_2_vx	ground_force_2_vy	ground_force_2_vz	ground_force_2_px	ground_force_2_py	ground_force_2_pz	ground_force_2_mx	ground_force_2_my	ground_force_2_mz
0	-42.2149	344.36	-10.0224	0.298597	0.006	-0.130544	0	-0.036629	0	0	0	0	0.768352	0	-0.198723	0	0	0
0.01	-48.0651	369.524	-10.589	0.302496	0.006	-0.130755	0	0.021877	0	0	0	0	0.768352	0	-0.198723	0	0	0
0.02	-54.1035	396.783	-11.2306	0.307003	0.006	-0.130971	0	0.08901	0	0	0	0	0.768352	0	-0.198723	0	0	0
0.03	-60.0707	425.372	-11.962	0.311323	0.006	-0.131144	0	0.1619	0	0	0	0	0.768352	0	-0.198723	0	0	0
0.04	-65.7377	454.559	-12.8075	0.315401	0.006	-0.131263	0	0.236617	0	0	0	0	0.768352	0	-0.198723	0	0	0
0.05	-70.9127	483.685	-13.774	0.319216	0.006	-0.131327	0	0.310108	0	0	0	0	0.768352	0	-0.198723	0	0	0
0.06	-75.427	512.125	-14.8432	0.322768	0.006	-0.131338	0	0.380857	0	0	0	0	0.768352	0	-0.198723	0	0	0
0.07	-79.1378	539.253	-15.9846	0.326075	0.006	-0.131297	0	0.447882	0	0	0	0	0.768352	0	-0.198723	0	0	0
0.08	-81.9386	564.448	-17.1655	0.329169	0.006	-0.131207	0	0.510248	0	0	0	0	0.768352	0	-0.198723	0	0	0
0.09	-83.7669	587.115	-18.3476	0.332089	0.006	-0.131069	0	0.567175	0	0	0	0	0.768352	0	-0.198723	0	0	0
0.1	-84.6067	606.724	-19.4889	0.33488	0.006	-0.130883	0	0.61758	0	0	0	0	0.768352	0	-0.198723	0	0	0
0.11	-84.4825	622.851	-20.5454	0.337586	0.006	-0.130652	0	0.659929	0	0	0	0	0.768352	0	-0.198723	0	0	0
0.12	-83.4482	635.2	-21.4721	0.340246	0.006	-0.13038	0	0.692245	0	0	0	0	0.768352	0	-0.198723	0	0	0
0.13	-81.5786	643.615	-22.2268	0.342891	0.006	-0.13007	0	0.712098	0	0	0	0	0.768352	0	-0.198723	0	0	0
0.14	-78.9648	648.09	-22.7754	0.34555	0.006	-0.129725	0	0.717019	0	0	0	0	0.768352	0	-0.198723	0	0	0
0.15	-75.7122	648.77	-23.0978	0.348246	0.006	-0.12935	0	0.704885	0	0	0	0	0.768352	0	-0.198723	0	0	0
0.16	-71.9369	645.939	-23.192	0.351	0.006	-0.128946	0	0.67409	0	0	0	0	0.768352	0	-0.198723	0	0	0
0.17	-67.7612	639.994	-23.0732	0.35383	0.006	-0.128518	0	0.623631	0	0	0	0	0.768352	0	-0.198723	0	0	0
0.18	-63.3074	631.417	-22.7706	0.356751	0.006	-0.128066	0	0.553207	0	0	0	0	0.768352	0	-0.198723	0	0	0
0.19	-58.6922	620.743	-22.3219	0.359777	0.006	-0.127593	0	0.463163	0	0	0	0	0.768352	0	-0.198723	0	0	0
0.2	-54.0229	608.531	-21.7669	0.362917	0.006	-0.127101	0	0.354257	0	0	0	0	0.768352	0	-0.198723	0	0	0
0.21	-49.3937	595.345	-21.1427	0.366175	0.006	-0.126592	0	0.227414	0	0	0	0	0.768352	0	-0.198723	0	0	0
0.22	-44.8824	581.728	-20.4795	0.369548	0.006	-0.126071	0	0.083502	0	0	0	0	0.768352	0	-0.198723	0	0	0
0.23	-40.5478	568.195	-19.7991	0.373028	0.006	-0.125544	0	-0.07679	0	0	0	0	0.768352	0	-0.198723	0	0	0
0.24	-36.4304	555.221	-19.117	0.376597	0.006	-0.125019	0	-0.252896	0	0	0	0	0.768352	0	-0.198723	0	0	0
0.25	-32.5542	543.227	-18.4444	0.380229	0.006	-0.124505	0	-0.444374	0	0	0	0	0.768352	0	-0.198723	0	0	0
0.26	-28.9279	532.572	-17.793	0.383895	0.006	-0.12401	0	-0.650911	0	0	0	0	0.768352	0	-0.198723	0	0	0
0.27	-25.547	523.554	-17.1784	0.387557	0.006	-0.123543	0	-0.872073	0	0	0	0	0.768352	0	-0.198723	0	0	0
0.28	-22.3951	516.399	-16.6228	0.39118	0.006	-0.123111	0	-1.10689	0	0	0	0	0.768352	0	-0.198723	0	0	0
0.29	-19.4451	511.266	-16.1556	0.394725	0.006	-0.122718	0	-1.35364	0	0	0	0	0.768352	0	-0.198723	0	0	0
0.3	-16.6604	508.245	-15.8108	0.398157	0.006	-0.122367	0	-1.60975	0	0	0	0	0.768352	0	-0.198723	0	0	0
0.31	-13.9958	507.361	-15.6234	0.401448	0.006	-0.122058	0	-1.87184	0	0	0	0	0.768352	0	-0.198723	0	0	0
0.32	-11.4005	508.573	-15.6263	0.404575	0.006	-0.121787	0	-2.1359	0	0	0	0	0.768352	0	-0.198723	0	0	0
0.33	-8.82011	511.785	-15.848	0.407526	0.006	-0.121551	0	-2.39731	0	0	0	0	0.768352	0	-0.198723	0	0	0
0.34	-6.20011	516.846	-16.3101	0.410297	0.006	-0.121345	0	-2.65087	0	0	0	0	0.768352	0	-0.198723	0	0	0
0.35	-3.48838	523.563	-17.0243	0.412895	0.006	-0.121163	0	-2.89096	0	0	0	0	0.768352	0	-0.198723	0	0	0
0.36	-0.637522	531.707	-17.9897	0.415336	0.006	-0.121002	0	-3.11189	0	0	0	0	0.768352	0	-0.198723	0	0	0
0.37	2.3933	541.02	-19.1905	0.417641	0.006	-0.120858	0	-3.30823	0	0	0	0	0.768352	0	-0.198723	0	0	0
0.38	5.6369	551.231	-20.5957	0.419839	0.006	-0.120732	0	-3.47503	0	0	0	0	0.768352	0	-0.198723	0	0	0
0.39	9.11655	562.058	-22.1609	0.421955	0.006	-0.120621	0	-3.60797	0	0	0	0	0.768352	0	-0.198723	0	0	0
0.4	12.8453	573.217	-23.8292	0.424018	0.006	-0.120528	0	-3.70352	0	0	0	0	0.768352	0	-0.198723	0	0	0
0.41	16.8266	584.414	-25.534	0.426049	0.006	-0.120454	0	-3.75908	0	0	0	0	0.768352	0	-0.198723	0	0	0
0.42	21.0555	595.342	-27.2011	0.42807	0.006	-0.1204	0	-3.77312	0	0	0	0	0.768352	0	-0.198723	0	0	0
0.43	25.5189	605.671	-28.7532	0.430093	0.006	-0.120368	0	-3.74529	0	0	0	0	0.768352	0	-0.198723	0	0	0
0.44	30.1946	615.046	-30.114	0.432129	0.006	-0.12036	0	-3.67654	0	0	0	0	0.768352	0	-0.198723	0	0	0
0.45	35.0519	623.084	-31.2114	0.434183	0.006	-0.120376	0	-3.56917	0	0	0	0	0.768352	0	-0.198723	0	0	0
0.46	40.0509	629.381	-31.9808	0.436259	0.006	-0.12042	0	-3.42683	0	0	0	0	0.768352	0	-0.198723	0	0	0
0.47	45.1407	633.509	-32.3665	0.438355	0.006	-0.120492	0	-3.25463	0	0	0	0	0.768352	0	-0.198723	0	0	0
0.48	50.2562	635.028	-32.3237	0.440472	0.006	-0.120594	0	-3.05901	0	8.0947	27.3537	-3.61384	0.785492	0.006	-0.207742	0	0.854261	0
0.49	55.3138	633.494	-31.8205	0.442607	0.006	-0.120728	0	-2.84718	0	8.47259	41.1957	-3.90907	0.810772	0.006	-0.220112	0	0.842801	0
0.5	60.2095	628.476	-30.8419	0.44476	0.006	-0.120892	0	-2.6265	0	8.23879	57.6486	-4.17489	0.827058	0.006	-0.227105	0	0.834603	0
0.51	64.8197	619.575	-29.3922	0.446932	0.006	-0.121085	0	-2.40383	0	7.16493	76.6194	-4.37907	0.838976	0.006	-0.231465	0	0.827069	0
0.52	69.0043	606.465	-27.497	0.449125	0.006	-0.121305	0	-2.18514	0	5.10166	97.9796	-4.48297	0.84856	0.006	-0.2344	0	0.819473	0
0.53	72.6125	588.919	-25.2029	0.451343	0.006	-0.121547	0	-1.97536	0	2.03627	121.678	-4.44172	0.856818	0.006	-0.236519	0	0.812494	0
0.54	75.4884	566.835	-22.577	0.453588	0.006	-0.121805	0	-1.77794	0	-1.97563	147.707	-4.20081	0.864259	0.006	-0.238152	0	0.807287	0
0.55	77.478	540.254	-19.7067	0.455864	0.006	-0.122072	0	-1.59447	0	-6.85312	176.031	-3.69964	0.871146	0.006	-0.239484	0	0.805319	0
0.56	78.4393	509.367	-16.6943	0.458178	0.006	-0.122341	0	-1.42482	0	-12.4886	206.536	-2.87782	0.877608	0.006	-0.240621	0	0.808053	0
0.57	78.2516	474.525	-13.6483	0.460538	0.006	-0.122603	0	-1.26787	0	-18.7448	239.001	-1.68234	0.883704	0.006	-0.241632	0	0.816097	0
0.58	76.8259	436.25	-10.6767	0.462957	0.006	-0.12285	0	-1.12221	0	-25.4509	273.074	-0.0823638	0.889457	0.006	-0.242554	0	0.828382	0
0.59	74.1149	395.232	-7.88278	0.465454	0.006	-0.123076	0	-0.986388	0	-32.397	308.265	1.92095	0.894865	0.006	-0.24341	0	0.842401	0
0.6	70.1319	352.318	-5.36031	0.468057	0.006	-0.123274	0	-0.859239	0	-39.3469	344.002	4.30138	0.899928	0.006	-0.244214	0	0.855624	0
0.61	64.9707	308.484	-3.1844	0.4708	0.006	-0.123436	0	-0.740553	0	-46.077	379.736	7.01765	0.904658	0.006	-0.244976	0	0.866607	0
0.62	58.8077	264.785	-1.40354	0.473738	0.006	-0.123557	0	-0.630825	0	-52.4002	415.017	10.0092	0.909074	0.006	-0.245702	0	0.874524	0
0.63	51.8968	222.294	-0.0349466	0.476947	0.006	-0.123625	0	-0.530507	0	-58.155	449.474	13.1866	0.913194	0.006	-0.246393	0	0.878605	0
